<svg width="492" height="363" viewBox="0 0 492 363" fill="none" xmlns="http://www.w3.org/2000/svg">
<g clip-path="url(#clip0_12913_75635)">
<g filter="url(#filter0_b_12913_75635)">
<path d="M0.523438 8.09765C0.523438 3.67937 4.10516 0.0976562 8.52344 0.0976562H146.523V362.098H8.52344C4.10516 362.098 0.523438 358.516 0.523438 354.098V8.09765Z" fill="#4B5563"/>
<circle cx="17.0234" cy="16.5977" r="4.5" fill="#E02424"/>
<circle cx="33.0234" cy="16.5977" r="4.5" fill="#FACA15"/>
<circle cx="49.0234" cy="16.5977" r="4.5" fill="#0E9F6E"/>
<rect width="146" height="30" transform="translate(0.523438 33.0977)" fill="#374151"/>
<path d="M13.9219 45.2975C13.9219 44.9262 14.0694 44.5701 14.3319 44.3075C14.5945 44.045 14.9506 43.8975 15.3219 43.8975H18.8219L20.2219 45.2975H23.7219C24.0932 45.2975 24.4493 45.445 24.7118 45.7075C24.9744 45.9701 25.1219 46.3262 25.1219 46.6975V50.8975C25.1219 51.2688 24.9744 51.6249 24.7118 51.8874C24.4493 52.15 24.0932 52.2975 23.7219 52.2975H15.3219C14.9506 52.2975 14.5945 52.15 14.3319 51.8874C14.0694 51.6249 13.9219 51.2688 13.9219 50.8975V45.2975Z" fill="#9CA3AF"/>
<path d="M50.1921 43.6623C49.9156 43.3787 49.5799 43.2369 49.1849 43.2369C48.79 43.2369 48.4543 43.3787 48.1778 43.6623C47.9014 43.9458 47.7632 44.2901 47.7632 44.6953C47.7632 44.9586 47.8272 45.2029 47.9556 45.4282C48.0839 45.6535 48.2565 45.8295 48.4739 45.9561C48.4739 46.2194 48.4531 46.4511 48.4112 46.6511C48.3691 46.8511 48.3 47.027 48.2038 47.179C48.1073 47.3309 48.0076 47.4599 47.9038 47.5663C47.8 47.6727 47.6544 47.7727 47.4668 47.8664C47.2792 47.9601 47.1051 48.0385 46.9447 48.1019C46.7843 48.165 46.5682 48.2397 46.2967 48.3258C45.8029 48.4829 45.4228 48.6271 45.1562 48.7588V44.9837C45.3735 44.8572 45.5463 44.6813 45.6746 44.4559C45.8029 44.2306 45.8671 43.9862 45.8671 43.7229C45.8671 43.3179 45.7289 42.9735 45.4524 42.69C45.176 42.4065 44.8403 42.2646 44.4453 42.2646C44.0503 42.2646 43.7146 42.4064 43.4381 42.69C43.1617 42.9735 43.0234 43.3179 43.0234 43.7229C43.0234 43.9862 43.0876 44.2306 43.2159 44.4559C43.3443 44.6813 43.517 44.8572 43.7343 44.9837V51.2122C43.517 51.3387 43.3443 51.5148 43.2159 51.7401C43.0876 51.9655 43.0234 52.2099 43.0234 52.4731C43.0234 52.8781 43.1616 53.2225 43.4381 53.506C43.7146 53.7895 44.0504 53.9313 44.4453 53.9313C44.8403 53.9313 45.176 53.7895 45.4524 53.506C45.7288 53.2225 45.8671 52.8781 45.8671 52.4731C45.8671 52.2099 45.8029 51.9655 45.6746 51.7401C45.5462 51.5148 45.3735 51.3387 45.1562 51.2122V51.0147C45.1562 50.6654 45.2587 50.4123 45.4635 50.2553C45.6684 50.0982 46.0868 49.9185 46.7188 49.716C47.3854 49.4982 47.8866 49.293 48.2223 49.1005C49.3281 48.4576 49.886 47.4094 49.8959 45.956C50.1132 45.8295 50.2859 45.6535 50.4142 45.4282C50.5425 45.2028 50.6068 44.9585 50.6068 44.6952C50.6068 44.2902 50.4686 43.9459 50.1921 43.6623ZM44.949 52.9898C44.8107 53.1316 44.6429 53.2024 44.4454 53.2024C44.2479 53.2024 44.08 53.1316 43.9418 52.9898C43.8036 52.8481 43.7344 52.6758 43.7344 52.4734C43.7344 52.2707 43.8035 52.0986 43.9418 51.9568C44.08 51.815 44.2479 51.7441 44.4454 51.7441C44.6429 51.7441 44.8107 51.8151 44.949 51.9568C45.0873 52.0986 45.1563 52.2707 45.1563 52.4734C45.1563 52.6758 45.0873 52.8481 44.949 52.9898ZM44.949 44.2395C44.8107 44.3813 44.6429 44.4522 44.4454 44.4522C44.2479 44.4522 44.08 44.3813 43.9418 44.2395C43.8036 44.0977 43.7344 43.9256 43.7344 43.723C43.7344 43.5205 43.8035 43.3483 43.9418 43.2066C44.08 43.0648 44.2479 42.9939 44.4454 42.9939C44.6429 42.9939 44.8107 43.0648 44.949 43.2066C45.0873 43.3483 45.1563 43.5205 45.1563 43.723C45.1563 43.9256 45.0873 44.0978 44.949 44.2395ZM49.6885 45.2118C49.5503 45.3535 49.3825 45.4245 49.185 45.4245C48.9874 45.4245 48.8196 45.3535 48.6815 45.2118C48.5433 45.0701 48.4741 44.8979 48.4741 44.6953C48.4741 44.4928 48.5433 44.3207 48.6815 44.1788C48.8197 44.037 48.9874 43.9662 49.185 43.9662C49.3825 43.9662 49.5503 44.037 49.6885 44.1788C49.8267 44.3205 49.8959 44.4927 49.8959 44.6953C49.8959 44.8979 49.8268 45.0701 49.6885 45.2118Z" fill="#9CA3AF"/>
<path d="M75.5651 49.2643H75.1043L74.9409 49.1068C75.5126 48.4418 75.8568 47.5785 75.8568 46.6393C75.8568 44.5452 74.1593 42.8477 72.0651 42.8477C69.9709 42.8477 68.2734 44.5452 68.2734 46.6393C68.2734 48.7335 69.9709 50.431 72.0651 50.431C73.0043 50.431 73.8676 50.0868 74.5326 49.5152L74.6901 49.6785V50.1393L77.6068 53.0502L78.4759 52.181L75.5651 49.2643ZM72.0651 49.2643C70.6126 49.2643 69.4401 48.0918 69.4401 46.6393C69.4401 45.1868 70.6126 44.0143 72.0651 44.0143C73.5176 44.0143 74.6901 45.1868 74.6901 46.6393C74.6901 48.0918 73.5176 49.2643 72.0651 49.2643Z" fill="#9CA3AF"/>
<path d="M101.107 48.6815V53.3481H105.773V48.6815H101.107ZM95.2734 53.3481H99.9401V48.6815H95.2734V53.3481ZM95.2734 42.8482V47.5148H99.9401V42.8482H95.2734ZM103.242 42.084L99.9401 45.3798L103.242 48.6815L106.543 45.3798L103.242 42.084Z" fill="#9CA3AF"/>
<path d="M131.686 48.6454C131.71 48.4704 131.721 48.2896 131.721 48.0971C131.721 47.9104 131.71 47.7237 131.681 47.5487L132.865 46.6271C132.97 46.5454 132.999 46.3879 132.935 46.2712L131.815 44.3346C131.745 44.2062 131.599 44.1654 131.471 44.2062L130.076 44.7662C129.785 44.5446 129.476 44.3579 129.131 44.2179L128.921 42.7362C128.898 42.5962 128.781 42.4971 128.641 42.4971H126.401C126.261 42.4971 126.151 42.5962 126.127 42.7362L125.917 44.2179C125.573 44.3579 125.258 44.5504 124.972 44.7662L123.578 44.2062C123.45 44.1596 123.304 44.2062 123.234 44.3346L122.12 46.2712C122.05 46.3937 122.073 46.5454 122.19 46.6271L123.374 47.5487C123.345 47.7237 123.321 47.9162 123.321 48.0971C123.321 48.2779 123.333 48.4704 123.362 48.6454L122.178 49.5671C122.073 49.6487 122.044 49.8062 122.108 49.9229L123.228 51.8596C123.298 51.9879 123.444 52.0287 123.572 51.9879L124.966 51.4279C125.258 51.6496 125.567 51.8362 125.911 51.9762L126.121 53.4579C126.151 53.5979 126.261 53.6971 126.401 53.6971H128.641C128.781 53.6971 128.898 53.5979 128.916 53.4579L129.126 51.9762C129.47 51.8362 129.785 51.6496 130.071 51.4279L131.465 51.9879C131.593 52.0346 131.739 51.9879 131.809 51.8596L132.929 49.9229C132.999 49.7946 132.97 49.6487 132.859 49.5671L131.686 48.6454ZM127.521 50.1971C126.366 50.1971 125.421 49.2521 125.421 48.0971C125.421 46.9421 126.366 45.9971 127.521 45.9971C128.676 45.9971 129.621 46.9421 129.621 48.0971C129.621 49.2521 128.676 50.1971 127.521 50.1971Z" fill="#9CA3AF"/>
<rect x="12.5234" y="75.0977" width="8" height="8" rx="2" fill="#9CA3AF"/>
<rect x="34.5234" y="75.0977" width="81" height="8" rx="2" fill="#D4D4D8"/>
<rect x="12.5234" y="97.0977" width="8" height="8" rx="2" fill="#9CA3AF"/>
<rect x="34.5234" y="97.0977" width="46" height="8" rx="2" fill="#D4D4D8"/>
<rect x="12.5234" y="119.098" width="8" height="8" rx="2" fill="#9CA3AF"/>
<rect x="34.5234" y="119.098" width="81" height="8" rx="2" fill="#D4D4D8"/>
<rect x="12.5234" y="141.098" width="8" height="8" rx="2" fill="#9CA3AF"/>
<rect x="34.5234" y="141.098" width="60" height="8" rx="2" fill="#D4D4D8"/>
<rect x="12.5234" y="163.098" width="8" height="8" rx="2" fill="#9CA3AF"/>
<rect x="34.5234" y="163.098" width="72" height="8" rx="2" fill="#D4D4D8"/>
<rect x="12.5234" y="185.098" width="8" height="8" rx="2" fill="#9CA3AF"/>
<rect x="34.5234" y="185.098" width="34" height="8" rx="2" fill="#D4D4D8"/>
<rect x="12.5234" y="207.098" width="8" height="8" rx="2" fill="#9CA3AF"/>
<rect x="34.5234" y="207.098" width="69" height="8" rx="2" fill="#D4D4D8"/>
<rect x="12.5234" y="229.098" width="8" height="8" rx="2" fill="#9CA3AF"/>
<rect x="34.5234" y="229.098" width="81" height="8" rx="2" fill="#D4D4D8"/>
<rect x="12.5234" y="251.098" width="8" height="8" rx="2" fill="#9CA3AF"/>
<rect x="34.5234" y="251.098" width="81" height="8" rx="2" fill="#D4D4D8"/>
<rect x="12.5234" y="273.098" width="8" height="8" rx="2" fill="#9CA3AF"/>
<rect x="34.5234" y="273.098" width="68" height="8" rx="2" fill="#D4D4D8"/>
<rect x="12.5234" y="295.098" width="8" height="8" rx="2" fill="#9CA3AF"/>
<rect x="34.5234" y="295.098" width="52" height="8" rx="2" fill="#D4D4D8"/>
</g>
<path d="M146.523 0.0976562H483.523C487.942 0.0976562 491.523 3.67938 491.523 8.09766V354.098C491.523 358.516 487.942 362.098 483.523 362.098H146.523V0.0976562Z" fill="#1F2A37"/>
<path d="M146.523 0.0976562H483.523C487.942 0.0976562 491.523 3.67938 491.523 8.09766V30.0977H146.523V0.0976562Z" fill="#1F2A37"/>
<rect width="162" height="30" transform="translate(146.523 0.0976562)" fill="#374151"/>
<path d="M167.023 7.59766C166.198 7.59766 165.531 8.27266 165.531 9.09766L165.523 21.0977C165.523 21.9227 166.191 22.5977 167.016 22.5977H176.023C176.848 22.5977 177.523 21.9227 177.523 21.0977V12.0977L173.023 7.59766H167.023ZM172.273 12.8477V8.72266L176.398 12.8477H172.273Z" fill="#9CA3AF"/>
<rect x="184.523" y="12.0977" width="108" height="6" rx="2" fill="#9CA3AF"/>
<path d="M329.023 7.59766C328.198 7.59766 327.531 8.27266 327.531 9.09766L327.523 21.0977C327.523 21.9227 328.191 22.5977 329.016 22.5977H338.023C338.848 22.5977 339.523 21.9227 339.523 21.0977V12.0977L335.023 7.59766H329.023ZM334.273 12.8477V8.72266L338.398 12.8477H334.273Z" fill="#6B7280"/>
<rect x="346.523" y="12.0977" width="108" height="6" rx="2" fill="#6B7280"/>
<g clip-path="url(#clip1_12913_75635)">
<rect x="159.523" y="64.0977" width="124" height="8" rx="2" fill="#6B7280"/>
<rect x="293.523" y="64.0977" width="22" height="8" rx="2" fill="#6B7280"/>
<rect x="325.523" y="64.0977" width="135" height="8" rx="2" fill="#6B7280"/>
</g>
<g clip-path="url(#clip2_12913_75635)">
<rect x="159.523" y="84.0977" width="68" height="8" rx="2" fill="#6B7280"/>
<rect x="237.523" y="84.0977" width="126" height="8" rx="2" fill="#6B7280"/>
<rect x="373.523" y="84.0977" width="68" height="8" rx="2" fill="#6B7280"/>
<rect x="451.523" y="84.0977" width="31" height="8" rx="2" fill="#6B7280"/>
</g>
<g clip-path="url(#clip3_12913_75635)">
<rect x="159.523" y="104.098" width="84" height="8" rx="2" fill="#6B7280"/>
<rect x="253.523" y="104.098" width="27" height="8" rx="2" fill="#6B7280"/>
<rect x="290.523" y="104.098" width="128" height="8" rx="2" fill="#6B7280"/>
<rect x="428.523" y="104.098" width="42" height="8" rx="2" fill="#6B7280"/>
</g>
<g clip-path="url(#clip4_12913_75635)">
<rect x="159.523" y="124.098" width="124" height="8" rx="2" fill="#6B7280"/>
<rect x="293.523" y="124.098" width="92" height="8" rx="2" fill="#6B7280"/>
<rect x="395.523" y="124.098" width="78" height="8" rx="2" fill="#6B7280"/>
</g>
<g clip-path="url(#clip5_12913_75635)">
<rect x="159.523" y="144.098" width="29" height="8" rx="2" fill="#6B7280"/>
<rect x="198.523" y="144.098" width="140" height="8" rx="2" fill="#6B7280"/>
<rect x="348.523" y="144.098" width="132" height="8" rx="2" fill="#6B7280"/>
</g>
<g clip-path="url(#clip6_12913_75635)">
<rect x="159.523" y="164.098" width="79" height="8" rx="2" fill="#6B7280"/>
<rect x="248.523" y="164.098" width="158" height="8" rx="2" fill="#6B7280"/>
<rect x="416.523" y="164.098" width="32" height="8" rx="2" fill="#6B7280"/>
</g>
<g clip-path="url(#clip7_12913_75635)">
<rect x="159.523" y="184.098" width="124" height="8" rx="2" fill="#6B7280"/>
<rect x="293.523" y="184.098" width="37" height="8" rx="2" fill="#6B7280"/>
<rect x="340.523" y="184.098" width="135" height="8" rx="2" fill="#6B7280"/>
</g>
<g clip-path="url(#clip8_12913_75635)">
<rect x="159.523" y="204.098" width="71" height="8" rx="2" fill="#6B7280"/>
<rect x="240.523" y="204.098" width="118" height="8" rx="2" fill="#6B7280"/>
<rect x="368.523" y="204.098" width="81" height="8" rx="2" fill="#6B7280"/>
</g>
<g clip-path="url(#clip9_12913_75635)">
<rect x="159.523" y="224.098" width="124" height="8" rx="2" fill="#6B7280"/>
<rect x="293.523" y="224.098" width="50" height="8" rx="2" fill="#6B7280"/>
<rect x="353.523" y="224.098" width="129" height="8" rx="2" fill="#6B7280"/>
</g>
<g clip-path="url(#clip10_12913_75635)">
<rect x="159.523" y="244.098" width="34" height="8" rx="2" fill="#6B7280"/>
<rect x="203.523" y="244.098" width="125" height="8" rx="2" fill="#6B7280"/>
<rect x="338.523" y="244.098" width="135" height="8" rx="2" fill="#6B7280"/>
</g>
<path d="M146.523 333.098H491.523V354.098C491.523 358.516 487.942 362.098 483.523 362.098H146.523V333.098Z" fill="#374151"/>
<rect x="319.523" y="345.098" width="29.5" height="5" rx="1" fill="#6B7280"/>
<rect x="363.023" y="345.098" width="29.5" height="5" rx="1" fill="#6B7280"/>
<rect x="406.523" y="345.098" width="29.5" height="5" rx="1" fill="#6B7280"/>
<rect x="450.023" y="345.098" width="29.5" height="5" rx="1" fill="#6B7280"/>
</g>
<defs>
<filter id="filter0_b_12913_75635" x="-49.4766" y="-49.9023" width="246" height="462" filterUnits="userSpaceOnUse" color-interpolation-filters="sRGB">
<feFlood flood-opacity="0" result="BackgroundImageFix"/>
<feGaussianBlur in="BackgroundImage" stdDeviation="25"/>
<feComposite in2="SourceAlpha" operator="in" result="effect1_backgroundBlur_12913_75635"/>
<feBlend mode="normal" in="SourceGraphic" in2="effect1_backgroundBlur_12913_75635" result="shape"/>
</filter>
<clipPath id="clip0_12913_75635">
<rect x="0.523438" y="0.0976562" width="491" height="362" fill="white"/>
</clipPath>
<clipPath id="clip1_12913_75635">
<rect width="321" height="8" fill="white" transform="translate(159.523 64.0977)"/>
</clipPath>
<clipPath id="clip2_12913_75635">
<rect width="321" height="8" fill="white" transform="translate(159.523 84.0977)"/>
</clipPath>
<clipPath id="clip3_12913_75635">
<rect width="321" height="8" fill="white" transform="translate(159.523 104.098)"/>
</clipPath>
<clipPath id="clip4_12913_75635">
<rect width="321" height="8" fill="white" transform="translate(159.523 124.098)"/>
</clipPath>
<clipPath id="clip5_12913_75635">
<rect width="321" height="8" fill="white" transform="translate(159.523 144.098)"/>
</clipPath>
<clipPath id="clip6_12913_75635">
<rect width="321" height="8" fill="white" transform="translate(159.523 164.098)"/>
</clipPath>
<clipPath id="clip7_12913_75635">
<rect width="321" height="8" fill="white" transform="translate(159.523 184.098)"/>
</clipPath>
<clipPath id="clip8_12913_75635">
<rect width="321" height="8" fill="white" transform="translate(159.523 204.098)"/>
</clipPath>
<clipPath id="clip9_12913_75635">
<rect width="321" height="8" fill="white" transform="translate(159.523 224.098)"/>
</clipPath>
<clipPath id="clip10_12913_75635">
<rect width="321" height="8" fill="white" transform="translate(159.523 244.098)"/>
</clipPath>
</defs>
</svg>
